<svg width="106" height="24" viewBox="0 0 106 24" fill="none" xmlns="http://www.w3.org/2000/svg">
<path fill-rule="evenodd" clip-rule="evenodd" d="M33.9031 1.80212C37.3655 1.80212 39.3687 3.80098 39.3687 6.4908C39.3687 8.29224 38.231 9.77287 36.7967 10.2417C38.3794 10.6119 39.9128 12.0679 39.9128 14.3382C39.9128 17.1721 37.7797 19.2563 34.5216 19.2977L34.4225 19.2983H27.3494V1.80212H33.9031ZM33.6064 12.0187H31.158V16.1151H33.6064C35.1149 16.1151 36.03 15.3254 36.03 14.0669C36.03 12.8698 35.1574 12.0355 33.6522 12.0189L33.6064 12.0187ZM31.158 5.03503H33.2354L33.2812 5.03526C34.784 5.04988 35.5354 5.7867 35.5354 6.9105C35.5354 8.09501 34.6451 8.81065 33.2849 8.81065H31.158V5.03503Z" fill="#212121"/>
<path d="M43.0867 5.50183C44.3208 5.50183 45.3081 4.51457 45.3081 3.30518C45.3081 2.09578 44.3208 1.10852 43.0867 1.10852C41.902 1.10852 40.9148 2.09578 40.9148 3.30518C40.9148 4.51457 41.902 5.50183 43.0867 5.50183Z" fill="#212121"/>
<path d="M44.9997 19.2984V7.04333H41.223V19.2984H44.9997Z" fill="#212121"/>
<path d="M50.6711 19.2983V13.9342C50.6711 11.487 52.0261 10.5971 53.5288 10.5971C53.8983 10.5971 54.2925 10.6218 54.7113 10.7207V7.01276C54.4649 6.9386 54.0954 6.88916 53.7259 6.88916C52.7405 6.88916 51.1885 7.28467 50.548 8.66896V7.01276H46.9266V19.2983H50.6711Z" fill="#212121"/>
<path fill-rule="evenodd" clip-rule="evenodd" d="M67.8698 17.114L67.8698 1.41687H64.1763V7.97197L64.1672 7.95783L64.148 7.92899L64.1273 7.89947L64.105 7.86931C64.0973 7.85916 64.0893 7.84891 64.0811 7.83857L64.0557 7.8073C64.0469 7.7968 64.0379 7.78621 64.0286 7.77556L63.9998 7.74339C63.9703 7.71102 63.9382 7.67811 63.9034 7.64487L63.8678 7.61155C63.3992 7.18271 62.4883 6.71516 60.8767 6.71516C57.4048 6.71516 54.9425 9.45056 54.9425 13.0978C54.9425 16.8682 57.5526 19.5296 60.9998 19.5296C62.4773 19.5296 63.7084 18.9136 64.2748 18.0757L64.2751 18.1375L64.2756 18.1686L64.278 18.262L64.2817 18.3552L64.2849 18.417L64.2886 18.4782L64.2948 18.5686L64.2994 18.6276L64.3095 18.7417L64.3148 18.7965L64.3257 18.9005L64.3368 18.9957L64.3475 19.0807L64.3641 19.2L64.3733 19.2586H67.9683L67.9479 19.0243L67.935 18.8596L67.9214 18.6651L67.9098 18.4761L67.9005 18.3036L67.8936 18.1563L67.8873 18.0009L67.8817 17.8377L67.8792 17.7534L67.876 17.6234L67.8734 17.4895L67.872 17.3981L67.8705 17.2579L67.8698 17.114ZM58.7099 13.1224C58.7099 11.077 60.0149 10.0913 61.4677 10.0913C62.9205 10.0913 64.2255 11.077 64.2255 13.1224C64.2255 15.1432 62.9205 16.1782 61.4677 16.1782C60.0149 16.1782 58.7099 15.1432 58.7099 13.1224Z" fill="#212121"/>
<path fill-rule="evenodd" clip-rule="evenodd" d="M80.9263 15.7786C80.3345 17.9042 78.3865 19.6839 75.2796 19.6839C71.9015 19.6839 68.8932 17.2616 68.8932 13.1339C68.8932 9.1792 71.8275 6.65808 75.0084 6.65808C78.8057 6.65808 81.1482 9.00618 81.1482 12.9609C81.1482 13.4799 81.0989 14.0484 81.0743 14.1226H72.5426C72.6166 15.5067 73.8741 16.4954 75.3289 16.4954C76.6851 16.4954 77.4495 15.8528 77.7947 14.8888L80.9263 15.7786ZM72.6166 11.7002H77.5235C77.4742 10.761 76.8331 9.62402 75.0577 9.62402C73.4796 9.62402 72.6905 10.7857 72.6166 11.7002Z" fill="#212121"/>
<path d="M86.6971 24L94.2511 7.04333H90.2766L87.5611 13.5992L84.5741 7.04333H80.3775L85.5369 17.6412L82.7473 24H86.6971Z" fill="#212121"/>
<path fill-rule="evenodd" clip-rule="evenodd" d="M105.436 15.7786C104.845 17.9042 102.897 19.6839 99.7897 19.6839C96.4115 19.6839 93.4033 17.2616 93.4033 13.1339C93.4033 9.1792 96.3376 6.65808 99.5184 6.65808C103.316 6.65808 105.658 9.00618 105.658 12.9609C105.658 13.4799 105.609 14.0484 105.584 14.1226H97.0526C97.1266 15.5067 98.3842 16.4954 99.839 16.4954C101.195 16.4954 101.96 15.8528 102.305 14.8888L105.436 15.7786ZM97.1266 11.7002H102.034C101.984 10.761 101.343 9.62402 99.5678 9.62402C97.9896 9.62402 97.2006 10.7857 97.1266 11.7002Z" fill="#212121"/>
<path fill-rule="evenodd" clip-rule="evenodd" d="M13.7441 11.4527L13.7442 11.4525L13.7408 11.4511C13.6937 11.4308 13.6461 11.4119 13.5976 11.3945L8.69608 9.45735L8.69568 9.45805C8.56149 9.39871 8.4133 9.36511 8.25701 9.36511C7.65934 9.36511 7.1748 9.84696 7.1748 10.4413C7.1748 10.687 7.25854 10.9127 7.39791 11.0939L7.39726 11.0946L7.40572 11.1043C7.43049 11.1357 7.45662 11.1661 7.48472 11.1945L10.9989 15.2096L10.999 15.2095C11.4372 15.701 12.0765 16.0112 12.7889 16.0112C14.1097 16.0112 15.1804 14.9465 15.1804 13.633C15.1804 12.6574 14.5893 11.8194 13.7441 11.4527ZM12.1025 3.42391C13.2116 3.07828 14.4066 3.64911 14.7716 4.69873C15.1368 5.7483 14.5338 6.87926 13.4246 7.22493C12.3157 7.57041 11.1207 6.99959 10.7555 5.95007C10.3905 4.9004 10.9935 3.76939 12.1025 3.42391ZM19.8124 4.67851C19.6511 4.45105 19.4165 4.30536 19.1618 4.2412L19.1616 4.23745L18.205 3.98657C18.1912 3.94172 18.1821 3.89633 18.1671 3.85154C17.1738 0.912943 13.9228 -0.685001 10.9055 0.282453C9.34246 0.783522 8.15382 1.87699 7.50437 3.22105L5.77588 5.96947L1.67326 4.34961L1.67054 4.35261C1.41214 4.24761 1.11738 4.22454 0.830655 4.31642C0.196983 4.51971 -0.147702 5.18469 0.0608768 5.80201C0.091463 5.8922 0.134806 5.97437 0.183875 6.05165L0.176743 6.05985L4.4571 11.7299C4.46097 11.7349 4.46288 11.7406 4.46675 11.7456C4.47056 11.7509 4.47559 11.755 4.47965 11.7602L7.54199 16.0555C8.8801 18.4469 11.7751 19.8861 14.5697 18.9901C17.5868 18.0228 19.2277 14.8564 18.2343 11.9178C17.9251 11.0032 17.3969 10.2187 16.7253 9.60081C17.572 8.79161 18.1465 7.74748 18.3612 6.61442L19.2864 6.34697L19.2858 6.33686C19.3679 6.30588 19.4481 6.2684 19.5236 6.2176C20.0396 5.87028 20.1691 5.18128 19.8124 4.67851Z" fill="#1976D2"/>
</svg>
