<svg width="121px" height="28px" viewBox="0 0 86 20" fill="none" xmlns="http://www.w3.org/2000/svg" role="img" aria-labelledby="desktop-feefo-home-id" data-aqa-id="navigation-feefo-home"><title id="desktop-feefo-home-id">Feefo home</title><g clip-path="url(#nav-logo_svg__a)"><path d="M18.725 10.81H11.92c.3-1.382 1.572-2.302 3.36-2.302 1.788 0 2.928.814 3.444 2.303Zm4.31 3.035v-.462c0-5.42-3.17-8.754-7.803-8.754-1.977 0-3.901.814-5.367 2.276a7.459 7.459 0 0 0-2.22 5.337c0 2.03.731 3.902 2.14 5.395 1.493 1.572 3.28 2.329 5.5 2.329 3.254 0 5.663-1.545 7.072-4.58h-4.716c-.651.569-1.356.815-2.223.815-1.871 0-2.981-.815-3.36-2.356h10.977ZM34.924 10.81h-6.803c.3-1.382 1.572-2.302 3.36-2.302 1.788 0 2.924.814 3.443 2.303Zm4.31 3.035v-.462c0-5.42-3.17-8.754-7.802-8.754-1.977 0-3.902.814-5.368 2.276a7.459 7.459 0 0 0-2.22 5.337c0 2.03.732 3.902 2.14 5.395 1.493 1.572 3.281 2.329 5.5 2.329 3.255 0 5.664-1.545 7.073-4.58H33.84c-.652.569-1.356.815-2.22.815-1.871 0-2.98-.815-3.36-2.356h10.974ZM1.572 8.318v11.3h4.2v-11.3h1.71v-3.25h-1.71v-.352c0-1.33.3-1.761 1.6-1.761h.11V.027C7.238.027 7.018 0 6.802 0c-3.58 0-5.258 1.41-5.258 4.527 0 .162.027.352.027.541H0v3.254h1.572v-.004ZM40.858 8.318v11.3h4.201v-11.3h1.709v-3.25h-1.709v-.352c0-1.33.3-1.761 1.599-1.761h.106V.027c-.243 0-.462-.027-.678-.027-3.576 0-5.258 1.41-5.258 4.527 0 .162.027.352.027.541h-1.572v3.254h1.572l.004-.004ZM57.87 12.356c0 1.977-1.545 3.576-3.439 3.576-1.894 0-3.443-1.599-3.443-3.576s1.545-3.602 3.443-3.602c1.898 0 3.44 1.598 3.44 3.602Zm4.254-.106c0-1.977-.84-3.985-2.382-5.447-1.462-1.382-3.277-2.114-5.394-2.114-1.977 0-3.902.815-5.368 2.277a7.459 7.459 0 0 0-2.22 5.337c0 2.03.732 3.902 2.14 5.367 1.493 1.572 3.281 2.33 5.5 2.33 2.22 0 4.039-.784 5.531-2.276 1.462-1.463 2.193-3.28 2.193-5.474Z" fill="currentColor"></path><path d="M68.698 9.886a4.09 4.09 0 0 1-3.834-3.845h9.015v-.098C73.88 2.4 71.62.04 68.49.04c-3.303 0-5.545 2.42-5.545 5.564 0 2.97 2.322 5.588 5.489 5.588 2.302 0 4.132-1.277 5.113-3.64h-.909a4.082 4.082 0 0 1-3.693 2.337c-.084 0-.16 0-.243-.008M80.143 9.886a4.09 4.09 0 0 0 3.833-3.845h-9.015v-.098C74.96 2.4 77.222.04 80.35.04c3.303 0 5.546 2.42 5.546 5.564 0 2.97-2.322 5.588-5.49 5.588-2.298 0-4.128-1.277-5.113-3.64h.913A4.082 4.082 0 0 0 79.9 9.89c.084 0 .16 0 .243-.008" fill="#FFD100"></path></g><defs><clipPath id="nav-logo_svg__a"><path fill="#fff" d="M0 0h85.898v20H0z"></path></clipPath></defs></svg>