<?xml version="1.0" encoding="UTF-8"?>
<svg id="Layer_1" xmlns="http://www.w3.org/2000/svg" version="1.1" viewBox="0 0 725 119.6">
  <!-- Generator: Adobe Illustrator 29.0.0, SVG Export Plug-In . SVG Version: 2.1.0 Build 186)  -->
  <defs>
    <style>
      .st0 {
        fill: #332d29;
      }

      .st1 {
        fill: #f7f5f2;
      }

      .st1, .st2 {
        stroke-linejoin: round;
      }

      .st1, .st2, .st3 {
        stroke: #332d29;
        stroke-width: 9px;
      }

      .st2, .st3 {
        fill: none;
      }

      .st3 {
        stroke-miterlimit: 10;
      }
    </style>
  </defs>
  <g>
    <polyline class="st1" points="52.9 62.7 52.9 62.7 22.2 79.7 22.2 62.7 6.4 62.7 6.4 5.1 96 5.1 96 53.5"/>
    <polyline class="st1" points="52.9 48.7 52.9 96.5 93.7 96.5 124.4 114.7 124.4 96.5 141.3 96.5 141.3 37.7 93.7 37.7"/>
  </g>
  <g>
    <polyline class="st2" points="52.9 62.7 52.9 62.7 22.2 79.7 22.2 62.7 6.4 62.7 6.4 5.1 96 5.1 96 52.4"/>
    <polyline class="st2" points="52.9 49.7 52.9 96.5 93.7 96.5 124.4 114.7 124.4 96.5 141.3 96.5 141.3 37.7 93.7 37.7"/>
  </g>
  <path class="st3" d="M118.5,56.8c0,11.8-9.6,21.4-21.4,21.4s-21.4-9.6-21.4-21.4"/>
  <path class="st3" d="M30.5,45.4c0-11.8,9.6-21.4,21.4-21.4s21.4,9.6,21.4,21.4"/>
  <g>
    <path class="st0" d="M180.1,21.7h27c20.5,0,27.4,7.7,27.4,18.4s-6.2,16-16.2,18.1c10.6,2.5,15.3,10.4,17.1,25.4.2,1.2.5,4.4.6,5.3h-16.8c0-.1-.1-2.3-.2-3.1-1.4-13-5.6-21.1-16.9-21.2h-6.1v24.4h-16V21.7ZM204.5,54.2c9.9,0,14-5.8,14-11.7s-3.7-9.6-13.2-9.6h-9.3v21.7l8.5-.4Z"/>
    <path class="st0" d="M238.8,65.2c0-15.1,9.9-25.2,24.9-25.2s24.2,9.5,24.2,25.3v3.7h-34.3c.7,6.5,4.9,9.8,11,9.8s9.2-3,10.6-7l12.4,3.7c-3.2,8.7-10.3,14.1-23.6,14.1s-25.2-9.5-25.2-24.6ZM272.7,60.2c-.4-6.4-3.4-9.5-9.3-9.5s-9.2,3.4-9.9,9.5h19.2Z"/>
    <path class="st0" d="M287.3,41.1h16l10.3,31,9.5-31h13.9l-17.6,47.9h-13.9l-18.2-47.9Z"/>
    <path class="st0" d="M341.1,21.8h15.8v13.1h-15.8v-13.1ZM341.3,41.1h15.4v47.7h-15.4v-47.7Z"/>
    <path class="st0" d="M363.1,65.2c0-15.1,9.9-25.2,24.9-25.2s24.2,9.5,24.2,25.3v3.7h-34.3c.7,6.5,4.9,9.8,11,9.8s9.2-3,10.6-7l12.4,3.7c-3.2,8.7-10.3,14.1-23.6,14.1s-25.2-9.5-25.2-24.6ZM397,60.2c-.4-6.4-3.4-9.5-9.3-9.5s-9.2,3.4-9.9,9.5h19.2Z"/>
    <path class="st0" d="M412.2,41.1h15.6l7.4,27.7,8.2-27.7h13.4l8,27.7,7.4-27.7h13.7l-15.2,47.7h-13.2l-8.5-30-8.5,30h-13.3l-15-47.7Z"/>
    <path class="st0" d="M495.6,52.3h-7v-11.2h7v-3c0-11.8,3.3-16.3,13.9-17.2h10.4v11.8h-3.1c-5.7,0-6.9.3-6.7,7.1v1.3h9.1v11.2h-8.7v36.5h-15v-36.5Z"/>
    <path class="st0" d="M524.9,21h15.4v67.8h-15.4V21Z"/>
    <path class="st0" d="M546.8,65c0-15,10.1-25,25.8-25s25.7,10,25.7,25-10.2,24.8-26,24.8-25.5-9.9-25.5-24.8ZM582.6,65.4v-.7c0-8.8-3.6-13.5-10.1-13.5s-10,4.7-10,13.5v.7c0,8.7,3.5,13.2,9.9,13.2s10.2-4.6,10.2-13.2Z"/>
    <path class="st0" d="M598.7,41.1h15.6l7.4,27.7,8.2-27.7h13.4l8,27.7,7.4-27.7h13.7l-15.2,47.7h-13.2l-8.5-30-8.5,30h-13.3l-15-47.7Z"/>
    <path class="st0" d="M674.4,79.8l22.7-27.4h-22.4v-11.3h40.4v9l-22.1,27.4h22.1v11.3h-40.7v-9Z"/>
  </g>
</svg>